<mxfile host="app.diagrams.net" modified="2024-03-20T22:41:53.545Z" agent="Mozilla/5.0 (Windows NT 10.0; Win64; x64) AppleWebKit/537.36 (KHTML, like Gecko) Chrome/122.0.0.0 Safari/537.36" etag="DCyolV5X0Yx0t5_kOmLF" version="24.0.7" type="device">
  <diagram name="Page-1" id="Gzr3Jkpcg0FxN1e7sh33">
    <mxGraphModel dx="880" dy="460" grid="1" gridSize="10" guides="1" tooltips="1" connect="1" arrows="1" fold="1" page="1" pageScale="1" pageWidth="850" pageHeight="1100" math="0" shadow="0">
      <root>
        <mxCell id="0" />
        <mxCell id="1" parent="0" />
        <mxCell id="ZCxvXX5myREktlkNIcdF-1" value="User" style="shape=umlActor;verticalLabelPosition=bottom;verticalAlign=top;html=1;outlineConnect=0;" vertex="1" parent="1">
          <mxGeometry x="160" y="210" width="30" height="60" as="geometry" />
        </mxCell>
        <mxCell id="ZCxvXX5myREktlkNIcdF-4" value="Delivery App" style="shape=rect;html=1;verticalAlign=top;fontStyle=1;whiteSpace=wrap;align=center;" vertex="1" parent="1">
          <mxGeometry x="280" y="80" width="360" height="560" as="geometry" />
        </mxCell>
        <mxCell id="ZCxvXX5myREktlkNIcdF-5" value="Admin" style="shape=umlActor;verticalLabelPosition=bottom;verticalAlign=top;html=1;outlineConnect=0;" vertex="1" parent="1">
          <mxGeometry x="730" y="210" width="30" height="60" as="geometry" />
        </mxCell>
        <mxCell id="ZCxvXX5myREktlkNIcdF-6" value="Sign Up" style="ellipse;whiteSpace=wrap;html=1;" vertex="1" parent="1">
          <mxGeometry x="320" y="180" width="100" height="50" as="geometry" />
        </mxCell>
        <mxCell id="ZCxvXX5myREktlkNIcdF-7" value="Log In" style="ellipse;whiteSpace=wrap;html=1;" vertex="1" parent="1">
          <mxGeometry x="320" y="270" width="100" height="50" as="geometry" />
        </mxCell>
        <mxCell id="ZCxvXX5myREktlkNIcdF-8" value="Transfer Fee" style="ellipse;whiteSpace=wrap;html=1;" vertex="1" parent="1">
          <mxGeometry x="320" y="540" width="100" height="50" as="geometry" />
        </mxCell>
        <mxCell id="ZCxvXX5myREktlkNIcdF-10" value="Send Packets" style="ellipse;whiteSpace=wrap;html=1;" vertex="1" parent="1">
          <mxGeometry x="320" y="360" width="100" height="50" as="geometry" />
        </mxCell>
        <mxCell id="ZCxvXX5myREktlkNIcdF-12" value="Get Points" style="ellipse;whiteSpace=wrap;html=1;" vertex="1" parent="1">
          <mxGeometry x="320" y="450" width="100" height="50" as="geometry" />
        </mxCell>
        <mxCell id="ZCxvXX5myREktlkNIcdF-15" value="" style="endArrow=open;endFill=1;endSize=12;html=1;rounded=0;exitX=0.5;exitY=0.5;exitDx=0;exitDy=0;exitPerimeter=0;entryX=0;entryY=0.5;entryDx=0;entryDy=0;" edge="1" parent="1" source="ZCxvXX5myREktlkNIcdF-1" target="ZCxvXX5myREktlkNIcdF-6">
          <mxGeometry width="160" relative="1" as="geometry">
            <mxPoint x="240" y="239.5" as="sourcePoint" />
            <mxPoint x="400" y="239.5" as="targetPoint" />
          </mxGeometry>
        </mxCell>
        <mxCell id="ZCxvXX5myREktlkNIcdF-16" value="" style="endArrow=open;endFill=1;endSize=12;html=1;rounded=0;exitX=0.5;exitY=0.5;exitDx=0;exitDy=0;exitPerimeter=0;entryX=0;entryY=0.5;entryDx=0;entryDy=0;" edge="1" parent="1" source="ZCxvXX5myREktlkNIcdF-1" target="ZCxvXX5myREktlkNIcdF-7">
          <mxGeometry width="160" relative="1" as="geometry">
            <mxPoint x="185" y="250" as="sourcePoint" />
            <mxPoint x="330" y="215" as="targetPoint" />
          </mxGeometry>
        </mxCell>
        <mxCell id="ZCxvXX5myREktlkNIcdF-17" value="" style="endArrow=open;endFill=1;endSize=12;html=1;rounded=0;exitX=0.5;exitY=0.5;exitDx=0;exitDy=0;exitPerimeter=0;entryX=0;entryY=0.5;entryDx=0;entryDy=0;" edge="1" parent="1" source="ZCxvXX5myREktlkNIcdF-1" target="ZCxvXX5myREktlkNIcdF-10">
          <mxGeometry width="160" relative="1" as="geometry">
            <mxPoint x="195" y="260" as="sourcePoint" />
            <mxPoint x="340" y="225" as="targetPoint" />
          </mxGeometry>
        </mxCell>
        <mxCell id="ZCxvXX5myREktlkNIcdF-18" value="" style="endArrow=open;endFill=1;endSize=12;html=1;rounded=0;exitX=0.5;exitY=0.5;exitDx=0;exitDy=0;exitPerimeter=0;entryX=0;entryY=0.5;entryDx=0;entryDy=0;" edge="1" parent="1" source="ZCxvXX5myREktlkNIcdF-1" target="ZCxvXX5myREktlkNIcdF-12">
          <mxGeometry width="160" relative="1" as="geometry">
            <mxPoint x="205" y="270" as="sourcePoint" />
            <mxPoint x="350" y="235" as="targetPoint" />
          </mxGeometry>
        </mxCell>
        <mxCell id="ZCxvXX5myREktlkNIcdF-19" value="" style="endArrow=open;endFill=1;endSize=12;html=1;rounded=0;exitX=0.5;exitY=0.5;exitDx=0;exitDy=0;exitPerimeter=0;entryX=0;entryY=0.5;entryDx=0;entryDy=0;" edge="1" parent="1" source="ZCxvXX5myREktlkNIcdF-1" target="ZCxvXX5myREktlkNIcdF-8">
          <mxGeometry width="160" relative="1" as="geometry">
            <mxPoint x="215" y="280" as="sourcePoint" />
            <mxPoint x="360" y="245" as="targetPoint" />
          </mxGeometry>
        </mxCell>
        <mxCell id="ZCxvXX5myREktlkNIcdF-21" value="Validate Data" style="ellipse;whiteSpace=wrap;html=1;" vertex="1" parent="1">
          <mxGeometry x="500" y="160" width="100" height="50" as="geometry" />
        </mxCell>
        <mxCell id="ZCxvXX5myREktlkNIcdF-22" value="&amp;lt;&amp;lt;include&amp;gt;&amp;gt;" style="edgeStyle=none;html=1;endArrow=open;verticalAlign=bottom;dashed=1;labelBackgroundColor=none;rounded=0;exitX=1;exitY=0.5;exitDx=0;exitDy=0;entryX=0;entryY=0.5;entryDx=0;entryDy=0;" edge="1" parent="1" source="ZCxvXX5myREktlkNIcdF-6" target="ZCxvXX5myREktlkNIcdF-21">
          <mxGeometry width="160" relative="1" as="geometry">
            <mxPoint x="340" y="360" as="sourcePoint" />
            <mxPoint x="500" y="360" as="targetPoint" />
          </mxGeometry>
        </mxCell>
        <mxCell id="ZCxvXX5myREktlkNIcdF-23" value="Display Error Message" style="ellipse;whiteSpace=wrap;html=1;" vertex="1" parent="1">
          <mxGeometry x="500" y="230" width="100" height="50" as="geometry" />
        </mxCell>
        <mxCell id="ZCxvXX5myREktlkNIcdF-24" value="&amp;lt;&amp;lt;extend&amp;gt;&amp;gt;" style="edgeStyle=none;html=1;startArrow=open;endArrow=none;startSize=12;verticalAlign=bottom;dashed=1;labelBackgroundColor=none;rounded=0;entryX=0;entryY=0.5;entryDx=0;entryDy=0;exitX=1;exitY=0.5;exitDx=0;exitDy=0;" edge="1" parent="1" source="ZCxvXX5myREktlkNIcdF-6" target="ZCxvXX5myREktlkNIcdF-23">
          <mxGeometry width="160" relative="1" as="geometry">
            <mxPoint x="340" y="360" as="sourcePoint" />
            <mxPoint x="500" y="360" as="targetPoint" />
          </mxGeometry>
        </mxCell>
        <mxCell id="ZCxvXX5myREktlkNIcdF-25" value="&amp;lt;&amp;lt;extend&amp;gt;&amp;gt;" style="edgeStyle=none;html=1;startArrow=open;endArrow=none;startSize=12;verticalAlign=bottom;dashed=1;labelBackgroundColor=none;rounded=0;entryX=0;entryY=0.5;entryDx=0;entryDy=0;exitX=1;exitY=0.5;exitDx=0;exitDy=0;" edge="1" parent="1" source="ZCxvXX5myREktlkNIcdF-7" target="ZCxvXX5myREktlkNIcdF-23">
          <mxGeometry width="160" relative="1" as="geometry">
            <mxPoint x="340" y="360" as="sourcePoint" />
            <mxPoint x="500" y="360" as="targetPoint" />
          </mxGeometry>
        </mxCell>
        <mxCell id="ZCxvXX5myREktlkNIcdF-26" value="Validate Username &amp;amp; Password" style="ellipse;whiteSpace=wrap;html=1;" vertex="1" parent="1">
          <mxGeometry x="500" y="300" width="100" height="50" as="geometry" />
        </mxCell>
        <mxCell id="ZCxvXX5myREktlkNIcdF-27" value="&amp;lt;&amp;lt;include&amp;gt;&amp;gt;" style="edgeStyle=none;html=1;endArrow=open;verticalAlign=bottom;dashed=1;labelBackgroundColor=none;rounded=0;exitX=1;exitY=0.5;exitDx=0;exitDy=0;entryX=0;entryY=0.5;entryDx=0;entryDy=0;" edge="1" parent="1" source="ZCxvXX5myREktlkNIcdF-7" target="ZCxvXX5myREktlkNIcdF-26">
          <mxGeometry width="160" relative="1" as="geometry">
            <mxPoint x="340" y="360" as="sourcePoint" />
            <mxPoint x="500" y="360" as="targetPoint" />
          </mxGeometry>
        </mxCell>
        <mxCell id="ZCxvXX5myREktlkNIcdF-28" value="Display Delivery Status" style="ellipse;whiteSpace=wrap;html=1;" vertex="1" parent="1">
          <mxGeometry x="500" y="370" width="100" height="50" as="geometry" />
        </mxCell>
        <mxCell id="ZCxvXX5myREktlkNIcdF-29" value="&amp;lt;&amp;lt;include&amp;gt;&amp;gt;" style="edgeStyle=none;html=1;endArrow=open;verticalAlign=bottom;dashed=1;labelBackgroundColor=none;rounded=0;entryX=0;entryY=0.5;entryDx=0;entryDy=0;exitX=1;exitY=0.5;exitDx=0;exitDy=0;" edge="1" parent="1" source="ZCxvXX5myREktlkNIcdF-10" target="ZCxvXX5myREktlkNIcdF-28">
          <mxGeometry width="160" relative="1" as="geometry">
            <mxPoint x="340" y="360" as="sourcePoint" />
            <mxPoint x="500" y="360" as="targetPoint" />
          </mxGeometry>
        </mxCell>
        <mxCell id="ZCxvXX5myREktlkNIcdF-30" value="" style="endArrow=open;endFill=1;endSize=12;html=1;rounded=0;exitX=0.5;exitY=0.5;exitDx=0;exitDy=0;exitPerimeter=0;entryX=1;entryY=0;entryDx=0;entryDy=0;" edge="1" parent="1" source="ZCxvXX5myREktlkNIcdF-5" target="ZCxvXX5myREktlkNIcdF-6">
          <mxGeometry width="160" relative="1" as="geometry">
            <mxPoint x="185" y="250" as="sourcePoint" />
            <mxPoint x="330" y="215" as="targetPoint" />
            <Array as="points">
              <mxPoint x="590" y="130" />
              <mxPoint x="460" y="130" />
            </Array>
          </mxGeometry>
        </mxCell>
        <mxCell id="ZCxvXX5myREktlkNIcdF-31" value="" style="endArrow=open;endFill=1;endSize=12;html=1;rounded=0;exitX=0.5;exitY=0.5;exitDx=0;exitDy=0;exitPerimeter=0;entryX=1;entryY=1;entryDx=0;entryDy=0;" edge="1" parent="1" source="ZCxvXX5myREktlkNIcdF-5" target="ZCxvXX5myREktlkNIcdF-7">
          <mxGeometry width="160" relative="1" as="geometry">
            <mxPoint x="195" y="260" as="sourcePoint" />
            <mxPoint x="340" y="225" as="targetPoint" />
            <Array as="points">
              <mxPoint x="660" y="360" />
              <mxPoint x="510" y="360" />
            </Array>
          </mxGeometry>
        </mxCell>
        <mxCell id="ZCxvXX5myREktlkNIcdF-33" value="Verify Amounts" style="ellipse;whiteSpace=wrap;html=1;" vertex="1" parent="1">
          <mxGeometry x="500" y="580" width="100" height="50" as="geometry" />
        </mxCell>
        <mxCell id="ZCxvXX5myREktlkNIcdF-34" value="&amp;lt;&amp;lt;include&amp;gt;&amp;gt;" style="edgeStyle=none;html=1;endArrow=open;verticalAlign=bottom;dashed=1;labelBackgroundColor=none;rounded=0;exitX=1;exitY=0.5;exitDx=0;exitDy=0;entryX=0;entryY=0.5;entryDx=0;entryDy=0;" edge="1" parent="1" source="ZCxvXX5myREktlkNIcdF-8" target="ZCxvXX5myREktlkNIcdF-33">
          <mxGeometry width="160" relative="1" as="geometry">
            <mxPoint x="400" y="430" as="sourcePoint" />
            <mxPoint x="560" y="430" as="targetPoint" />
          </mxGeometry>
        </mxCell>
        <mxCell id="ZCxvXX5myREktlkNIcdF-35" value="Display Error Message" style="ellipse;whiteSpace=wrap;html=1;" vertex="1" parent="1">
          <mxGeometry x="500" y="510" width="100" height="50" as="geometry" />
        </mxCell>
        <mxCell id="ZCxvXX5myREktlkNIcdF-36" value="&amp;lt;&amp;lt;extend&amp;gt;&amp;gt;" style="edgeStyle=none;html=1;startArrow=open;endArrow=none;startSize=12;verticalAlign=bottom;dashed=1;labelBackgroundColor=none;rounded=0;exitX=1;exitY=0.5;exitDx=0;exitDy=0;entryX=0;entryY=0.5;entryDx=0;entryDy=0;" edge="1" parent="1" source="ZCxvXX5myREktlkNIcdF-8" target="ZCxvXX5myREktlkNIcdF-35">
          <mxGeometry width="160" relative="1" as="geometry">
            <mxPoint x="400" y="430" as="sourcePoint" />
            <mxPoint x="560" y="430" as="targetPoint" />
          </mxGeometry>
        </mxCell>
        <mxCell id="ZCxvXX5myREktlkNIcdF-37" value="Manage Data" style="ellipse;whiteSpace=wrap;html=1;" vertex="1" parent="1">
          <mxGeometry x="500" y="440" width="100" height="50" as="geometry" />
        </mxCell>
        <mxCell id="ZCxvXX5myREktlkNIcdF-38" value="" style="endArrow=open;endFill=1;endSize=12;html=1;rounded=0;exitX=0.5;exitY=0.5;exitDx=0;exitDy=0;exitPerimeter=0;entryX=1;entryY=0.5;entryDx=0;entryDy=0;" edge="1" parent="1" source="ZCxvXX5myREktlkNIcdF-5" target="ZCxvXX5myREktlkNIcdF-37">
          <mxGeometry width="160" relative="1" as="geometry">
            <mxPoint x="720" y="385" as="sourcePoint" />
            <mxPoint x="865" y="440" as="targetPoint" />
          </mxGeometry>
        </mxCell>
      </root>
    </mxGraphModel>
  </diagram>
</mxfile>
